<svg width="290" height="248" viewBox="0 0 290 248" fill="none" xmlns="http://www.w3.org/2000/svg">
<path d="M44.0779 5.44897C59.7041 5.44897 72.3329 10.1172 81.9642 19.4536L68.5492 35.2273C61.6697 29.7237 54.348 26.9719 46.584 26.9719C42.9477 26.9719 40.1959 27.6108 38.3286 28.8884C36.4613 30.166 35.5277 31.9841 35.5277 34.3428C35.5277 36.1118 36.019 37.586 37.0018 38.7654C38.0829 39.8464 39.8028 40.8783 42.1614 41.8611C44.6184 42.8439 48.5495 44.2198 53.9549 45.9888C64.7655 49.4286 72.5295 53.7528 77.2468 58.9616C82.0625 64.1703 84.4703 71.2955 84.4703 80.3371C84.4703 86.9218 82.7013 92.7694 79.1633 97.8798C75.7235 102.892 70.7605 106.823 64.2741 109.673C57.7877 112.523 50.122 113.948 41.2769 113.948C32.2353 113.948 24.2748 112.523 17.3953 109.673C10.5158 106.823 4.71736 103.089 0 98.4695L14.8892 82.1061C22.6532 88.7891 31.056 92.1305 40.0976 92.1305C44.3236 92.1305 47.5176 91.2952 49.6797 89.6244C51.8419 87.8554 52.9229 85.595 52.9229 82.8432C52.9229 80.7794 52.4315 79.0595 51.4488 77.6836C50.5642 76.3077 48.9427 75.0301 46.584 73.8508C44.2253 72.6714 40.7855 71.3938 36.2647 70.0179C24.373 66.2833 16.0685 61.8116 11.3512 56.6029C6.63379 51.2959 4.27511 44.7112 4.27511 36.8489C4.27511 30.4608 5.99498 24.9081 9.43473 20.1907C12.8745 15.4734 17.5918 11.8371 23.5868 9.28182C29.6801 6.72659 36.5104 5.44897 44.0779 5.44897ZM185.504 8.39732L152.778 73.1137V111H122.41V73.2611L89.6829 8.39732H122.852L138.036 50.2639L153.367 8.39732H185.504ZM232.617 5.44897C248.243 5.44897 260.872 10.1172 270.503 19.4536L257.088 35.2273C250.209 29.7237 242.887 26.9719 235.123 26.9719C231.487 26.9719 228.735 27.6108 226.868 28.8884C225 30.166 224.067 31.9841 224.067 34.3428C224.067 36.1118 224.558 37.586 225.541 38.7654C226.622 39.8464 228.342 40.8783 230.701 41.8611C233.157 42.8439 237.089 44.2198 242.494 45.9888C253.305 49.4286 261.069 53.7528 265.786 58.9616C270.602 64.1703 273.009 71.2955 273.009 80.3371C273.009 86.9218 271.24 92.7694 267.702 97.8798C264.263 102.892 259.3 106.823 252.813 109.673C246.327 112.523 238.661 113.948 229.816 113.948C220.774 113.948 212.814 112.523 205.934 109.673C199.055 106.823 193.256 103.089 188.539 98.4695L203.428 82.1061C211.192 88.7891 219.595 92.1305 228.637 92.1305C232.863 92.1305 236.057 91.2952 238.219 89.6244C240.381 87.8554 241.462 85.595 241.462 82.8432C241.462 80.7794 240.971 79.0595 239.988 77.6836C239.103 76.3077 237.482 75.0301 235.123 73.8508C232.764 72.6714 229.325 71.3938 224.804 70.0179C212.912 66.2833 204.608 61.8116 199.89 56.6029C195.173 51.2959 192.814 44.7112 192.814 36.8489C192.814 30.4608 194.534 24.9081 197.974 20.1907C201.414 15.4734 206.131 11.8371 212.126 9.28182C218.219 6.72659 225.05 5.44897 232.617 5.44897ZM39.2131 132.397C55.7239 132.397 68.9423 136.083 78.8684 143.454C88.7946 150.726 93.7576 163.994 93.7576 183.256C93.7576 202.224 88.9911 215.59 79.4581 223.354C69.9251 231.118 57.0998 235 40.9821 235H6.33896V132.397H39.2131ZM36.707 153.773V213.624H42.7511C47.4685 213.624 51.2522 212.691 54.1023 210.824C56.9523 208.956 59.0653 205.86 60.4412 201.536C61.8171 197.114 62.5051 191.02 62.5051 183.256C62.5051 175.591 61.768 169.645 60.2938 165.419C58.9179 161.095 56.8049 158.097 53.9549 156.426C51.1048 154.657 47.4193 153.773 42.8985 153.773H36.707ZM178.56 132.397L175.464 153.478H141.558V172.642H171.336V193.133H141.558V213.772H177.823V235H111.19V132.397H178.56ZM278.587 132.397L252.642 235H213.428L185.861 132.397H217.851L233.477 213.919L247.482 132.397H278.587Z" fill="white"/>
</svg>
