<svg width="1046" height="127" viewBox="0 0 1046 127" fill="none" xmlns="http://www.w3.org/2000/svg">
<path d="M33.229 102.672C27.0987 102.672 21.1774 101.975 15.4651 100.582C9.75274 99.1888 5.05053 97.3776 1.35842 95.1484L9.29994 77.1754C12.7831 79.1957 16.6493 80.8327 20.8987 82.0866C25.2178 83.2709 29.3976 83.863 33.438 83.863C35.8065 83.863 37.6526 83.7237 38.9761 83.4451C40.3694 83.0967 41.3795 82.6439 42.0065 82.0866C42.6334 81.4597 42.9469 80.7282 42.9469 79.8923C42.9469 78.5687 42.2154 77.5238 40.7525 76.7575C39.2896 75.9912 37.3391 75.3642 34.9009 74.8766C32.5324 74.3193 29.92 73.762 27.0639 73.2047C24.2077 72.5777 21.3167 71.7766 18.3909 70.8013C15.5347 69.8261 12.8876 68.5373 10.4494 66.9351C8.08084 65.3328 6.16513 63.243 4.70222 60.6654C3.2393 58.0183 2.50785 54.7441 2.50785 50.843C2.50785 46.315 3.76177 42.2049 6.26962 38.5128C8.84713 34.751 12.6437 31.7555 17.6594 29.5263C22.7448 27.2971 29.0492 26.1825 36.5728 26.1825C41.5188 26.1825 46.3952 26.705 51.2019 27.7499C56.0086 28.7949 60.3277 30.3971 64.1591 32.5566L56.7401 50.4251C53.1176 48.6138 49.5997 47.2554 46.1862 46.3498C42.8424 45.4442 39.5683 44.9914 36.3638 44.9914C33.9953 44.9914 32.1144 45.2004 30.7211 45.6183C29.3279 46.0363 28.3178 46.5936 27.6908 47.2903C27.1335 47.9869 26.8549 48.7532 26.8549 49.5891C26.8549 50.843 27.5863 51.8531 29.0492 52.6194C30.5122 53.3161 32.4279 53.9082 34.7964 54.3958C37.2346 54.8835 39.8818 55.4059 42.7379 55.9632C45.6637 56.5205 48.5547 57.2868 51.4109 58.2621C54.2671 59.2374 56.8794 60.5261 59.2479 62.1284C61.6861 63.7306 63.6367 65.8205 65.0996 68.398C66.5625 70.9755 67.2939 74.18 67.2939 78.0114C67.2939 82.4698 66.0052 86.5799 63.4277 90.3416C60.9198 94.0338 57.158 97.0292 52.1423 99.3281C47.1266 101.557 40.8222 102.672 33.229 102.672ZM87.5894 101L119.564 27.8544H143.807L175.782 101H150.286L126.67 39.5577H136.283L112.668 101H87.5894ZM106.607 88.2518L112.877 70.4878H146.524L152.793 88.2518H106.607ZM200.616 101V27.8544H220.888L250.146 75.608H239.488L267.91 27.8544H288.182L288.391 101H265.925L265.716 61.7104H269.269L249.833 94.4169H238.966L218.694 61.7104H223.083V101H200.616ZM313.271 101L345.246 27.8544H369.489L401.464 101H375.967L352.352 39.5577H361.965L338.35 101H313.271ZM332.289 88.2518L338.559 70.4878H372.206L378.475 88.2518H332.289ZM473.738 27.8544H498.399V101H473.738V27.8544ZM450.959 101H426.298V27.8544H450.959V101ZM475.41 74.0406H449.287V53.7689H475.41V74.0406ZM523.238 101L555.213 27.8544H579.456L611.431 101H585.934L562.319 39.5577H571.932L548.317 101H523.238ZM542.256 88.2518L548.526 70.4878H582.173L588.442 88.2518H542.256ZM636.265 101V27.8544H656.537L693.737 72.3687H684.332V27.8544H708.366V101H688.094L650.894 56.4857H660.299V101H636.265Z" fill="white"/>
<path d="M748.532 28.7572C750.739 28.7572 752.651 29.0808 754.269 29.728C755.917 30.3458 757.432 31.3019 758.814 32.5964L755.725 36.1708C754.637 35.2882 753.548 34.641 752.46 34.2291C751.371 33.8172 750.209 33.6113 748.974 33.6113C747.62 33.6113 746.532 33.9055 745.708 34.4939C744.914 35.0528 744.517 35.8619 744.517 36.9209C744.517 37.6564 744.679 38.2595 745.002 38.7302C745.355 39.2009 745.958 39.6422 746.811 40.054C747.665 40.4659 748.944 40.9366 750.651 41.4661C753.681 42.437 755.946 43.6431 757.446 45.0847C758.947 46.4968 759.697 48.5267 759.697 51.1744C759.697 53.0572 759.226 54.7193 758.285 56.1608C757.343 57.5729 755.975 58.6909 754.181 59.5146C752.386 60.3089 750.283 60.7061 747.87 60.7061C745.458 60.7061 743.311 60.3236 741.428 59.5587C739.545 58.7938 737.927 57.7495 736.574 56.4256L739.883 52.763C741.06 53.7632 742.281 54.5281 743.546 55.0576C744.811 55.5578 746.194 55.8078 747.694 55.8078C749.283 55.8078 750.548 55.4401 751.489 54.7046C752.46 53.9691 752.945 52.9395 752.945 51.6156C752.945 50.7919 752.769 50.1153 752.416 49.5857C752.092 49.0268 751.518 48.5267 750.695 48.0854C749.871 47.6441 748.68 47.1881 747.12 46.7174C743.796 45.6877 741.413 44.4522 739.972 43.0106C738.559 41.5691 737.853 39.6863 737.853 37.3622C737.853 35.6559 738.309 34.1556 739.221 32.8611C740.133 31.5373 741.398 30.5223 743.016 29.8163C744.634 29.1102 746.473 28.7572 748.532 28.7572ZM788.199 29.4633L778.403 48.4825V60H771.916V48.5267L762.119 29.4633H769.224L775.314 43.3195L781.359 29.4633H788.199ZM801.9 28.7572C804.106 28.7572 806.019 29.0808 807.637 29.728C809.284 30.3458 810.799 31.3019 812.182 32.5964L809.093 36.1708C808.004 35.2882 806.916 34.641 805.827 34.2291C804.739 33.8172 803.577 33.6113 802.341 33.6113C800.988 33.6113 799.9 33.9055 799.076 34.4939C798.281 35.0528 797.884 35.8619 797.884 36.9209C797.884 37.6564 798.046 38.2595 798.37 38.7302C798.723 39.2009 799.326 39.6422 800.179 40.054C801.032 40.4659 802.312 40.9366 804.018 41.4661C807.048 42.437 809.314 43.6431 810.814 45.0847C812.314 46.4968 813.064 48.5267 813.064 51.1744C813.064 53.0572 812.594 54.7193 811.652 56.1608C810.711 57.5729 809.343 58.6909 807.548 59.5146C805.754 60.3089 803.65 60.7061 801.238 60.7061C798.826 60.7061 796.678 60.3236 794.795 59.5587C792.913 58.7938 791.295 57.7495 789.941 56.4256L793.251 52.763C794.428 53.7632 795.648 54.5281 796.914 55.0576C798.179 55.5578 799.561 55.8078 801.062 55.8078C802.65 55.8078 803.915 55.4401 804.857 54.7046C805.827 53.9691 806.313 52.9395 806.313 51.6156C806.313 50.7919 806.136 50.1153 805.783 49.5857C805.46 49.0268 804.886 48.5267 804.062 48.0854C803.239 47.6441 802.047 47.1881 800.488 46.7174C797.164 45.6877 794.781 44.4522 793.339 43.0106C791.927 41.5691 791.221 39.6863 791.221 37.3622C791.221 35.6559 791.677 34.1556 792.589 32.8611C793.501 31.5373 794.766 30.5223 796.384 29.8163C798.002 29.1102 799.841 28.7572 801.9 28.7572ZM839.054 29.4633L838.348 34.538H830.625V60H824.138V34.538H816.019V29.4633H839.054ZM862.802 29.4633L862.096 34.185H851.064V42.1281H860.684V46.8057H851.064V55.2342H862.891V60H844.578V29.4633H862.802ZM899.708 60H893.353L892.691 47.6C892.485 43.8932 892.383 40.7454 892.383 38.1565C892.383 36.7738 892.397 35.7736 892.427 35.1558L887.264 56.7345H881.13L875.614 35.1117C875.731 36.9062 875.79 38.9214 875.79 41.1572C875.79 43.5402 875.731 45.7319 875.614 47.7324L874.952 60H868.642L871.024 29.4633H879.276L884.307 50.5124L889.029 29.4633H897.369L899.708 60ZM915.573 28.7572C917.78 28.7572 919.692 29.0808 921.31 29.728C922.957 30.3458 924.472 31.3019 925.855 32.5964L922.766 36.1708C921.678 35.2882 920.589 34.641 919.501 34.2291C918.412 33.8172 917.25 33.6113 916.015 33.6113C914.661 33.6113 913.573 33.9055 912.749 34.4939C911.955 35.0528 911.558 35.8619 911.558 36.9209C911.558 37.6564 911.719 38.2595 912.043 38.7302C912.396 39.2009 912.999 39.6422 913.852 40.054C914.705 40.4659 915.985 40.9366 917.691 41.4661C920.722 42.437 922.987 43.6431 924.487 45.0847C925.988 46.4968 926.738 48.5267 926.738 51.1744C926.738 53.0572 926.267 54.7193 925.326 56.1608C924.384 57.5729 923.016 58.6909 921.222 59.5146C919.427 60.3089 917.324 60.7061 914.911 60.7061C912.499 60.7061 910.351 60.3236 908.469 59.5587C906.586 58.7938 904.968 57.7495 903.615 56.4256L906.924 52.763C908.101 53.7632 909.322 54.5281 910.587 55.0576C911.852 55.5578 913.234 55.8078 914.735 55.8078C916.323 55.8078 917.588 55.4401 918.53 54.7046C919.501 53.9691 919.986 52.9395 919.986 51.6156C919.986 50.7919 919.81 50.1153 919.457 49.5857C919.133 49.0268 918.559 48.5267 917.736 48.0854C916.912 47.6441 915.72 47.1881 914.161 46.7174C910.837 45.6877 908.454 44.4522 907.012 43.0106C905.6 41.5691 904.894 39.6863 904.894 37.3622C904.894 35.6559 905.35 34.1556 906.262 32.8611C907.174 31.5373 908.439 30.5223 910.057 29.8163C911.675 29.1102 913.514 28.7572 915.573 28.7572ZM747.209 70.4633C751.974 70.4633 755.784 71.5518 758.638 73.7288C761.521 75.8763 762.962 79.8332 762.962 85.5992C762.962 91.2477 761.55 95.2339 758.726 97.558C755.931 99.8527 752.342 101 747.959 101H739.221V70.4633H747.209ZM745.708 75.2291V96.2342H748.356C750.857 96.2342 752.783 95.4693 754.137 93.9395C755.519 92.3803 756.211 89.6002 756.211 85.5992C756.211 82.8339 755.858 80.6863 755.152 79.1565C754.475 77.6267 753.563 76.5971 752.416 76.0675C751.268 75.5086 749.871 75.2291 748.224 75.2291H745.708ZM788.353 70.4633L787.647 75.185H776.615V83.1281H786.235V87.8057H776.615V96.2342H788.442V101H770.128V70.4633H788.353ZM817.801 70.4633L809.019 101H801.121L792.03 70.4633H798.958L805.18 95.6164L811.182 70.4633H817.801ZM841.118 70.4633L840.412 75.185H829.379V83.1281H838.999V87.8057H829.379V96.2342H841.206V101H822.893V70.4633H841.118ZM854.9 70.4633V95.7929H866.991L866.285 101H848.413V70.4633H854.9ZM883.222 69.7572C886.017 69.7572 888.429 70.3897 890.459 71.6547C892.489 72.8903 894.048 74.6996 895.137 77.0825C896.225 79.4654 896.769 82.3485 896.769 85.7316C896.769 89.056 896.225 91.9243 895.137 94.3366C894.048 96.7196 892.489 98.5435 890.459 99.8085C888.429 101.074 886.017 101.706 883.222 101.706C880.427 101.706 878 101.088 875.941 99.8527C873.911 98.5877 872.352 96.7637 871.263 94.3808C870.175 91.9684 869.631 89.0854 869.631 85.7316C869.631 82.4367 870.175 79.5978 871.263 77.2149C872.381 74.8025 873.955 72.9639 875.985 71.6989C878.044 70.4044 880.457 69.7572 883.222 69.7572ZM883.222 74.6113C880.986 74.6113 879.295 75.4939 878.147 77.259C877.029 79.0241 876.47 81.8483 876.47 85.7316C876.47 89.6149 877.044 92.4391 878.192 94.2043C879.339 95.9694 881.016 96.8519 883.222 96.8519C885.458 96.8519 887.135 95.9841 888.253 94.2484C889.371 92.4833 889.93 89.6443 889.93 85.7316C889.93 81.8189 889.371 78.9947 888.253 77.259C887.135 75.4939 885.458 74.6113 883.222 74.6113ZM913.336 70.4633C917.307 70.4633 920.381 71.287 922.558 72.9344C924.765 74.5819 925.868 77.0384 925.868 80.3039C925.868 83.7164 924.779 86.2906 922.602 88.0263C920.425 89.7326 917.513 90.5857 913.865 90.5857H910.379V101H903.892V70.4633H913.336ZM913.336 85.8199C915.218 85.8199 916.66 85.3933 917.66 84.5402C918.66 83.687 919.16 82.2749 919.16 80.3039C919.16 76.8619 917.189 75.1409 913.247 75.1409H910.379V85.8199H913.336ZM960.617 101H954.262L953.6 88.6C953.395 84.8932 953.292 81.7454 953.292 79.1565C953.292 77.7738 953.306 76.7736 953.336 76.1558L948.173 97.7345H942.039L936.523 76.1117C936.64 77.9062 936.699 79.9214 936.699 82.1572C936.699 84.5402 936.64 86.7319 936.523 88.7324L935.861 101H929.551L931.933 70.4633H940.185L945.216 91.5124L949.938 70.4633H958.278L960.617 101ZM986.043 70.4633L985.337 75.185H974.305V83.1281H983.924V87.8057H974.305V96.2342H986.131V101H967.818V70.4633H986.043ZM1016.37 101H1008.03L998.324 76.7736C998.589 78.8623 998.795 80.8334 998.942 82.6868C999.119 84.5108 999.207 86.6583 999.207 89.1295V101H993.338V70.4633H1001.5L1011.39 94.7338C1010.8 90.7917 1010.5 87.1732 1010.5 83.8782V70.4633H1016.37V101ZM1045.28 70.4633L1044.57 75.538H1036.85V101H1030.36V75.538H1022.24V70.4633H1045.28Z" fill="white"/>
</svg>
